<?xml version="1.0" encoding="utf-8"?>
<!-- Generator: Adobe Illustrator 27.9.0, SVG Export Plug-In . SVG Version: 6.00 Build 0)  -->
<svg version="1.1" id="Layer_1" xmlns="http://www.w3.org/2000/svg" xmlns:xlink="http://www.w3.org/1999/xlink" x="0px" y="0px"
	 viewBox="0 0 1366 768" style="enable-background:new 0 0 1366 768;" xml:space="preserve">
<style type="text/css">
	.st0{fill:#0049AE;}
	.st1{fill:#4D8EC4;}
	.st2{font-family:'Bauhaus93';}
	.st3{font-size:76px;}
	.st4{fill:url(#SVGID_1_);}
	.st5{fill:url(#SVGID_00000125578021425504294630000000450304051632600214_);}
	.st6{fill:url(#SVGID_00000117650530263521663960000014927434168176704180_);}
	.st7{fill:url(#SVGID_00000095307920585055605880000005007138709280841131_);}
	.st8{fill:url(#SVGID_00000007425916535490235020000013786333551278533507_);}
	.st9{fill:url(#SVGID_00000176745934940598192300000013480685032047581581_);}
	.st10{fill:url(#SVGID_00000116223662596126563930000016729469973277328317_);}
	.st11{fill:#FFFFFF;}
</style>
<circle class="st0" cx="832.5" cy="829.5" r="2.5"/>
<text transform="matrix(1.257 0 0 1 274.7959 596.7129)" class="st1 st2 st3">Medical care fund</text>
<g>
	<linearGradient id="SVGID_1_" gradientUnits="userSpaceOnUse" x1="457.3724" y1="341.4194" x2="608.7802" y2="341.4194">
		<stop  offset="0.487" style="stop-color:#CCE0F4"/>
		<stop  offset="0.5108" style="stop-color:#C3DCF2"/>
		<stop  offset="0.5504" style="stop-color:#A9D2EE"/>
		<stop  offset="0.6009" style="stop-color:#80C2E7"/>
		<stop  offset="0.6597" style="stop-color:#47ACDE"/>
		<stop  offset="0.6978" style="stop-color:#1E9CD7"/>
		<stop  offset="0.8652" style="stop-color:#0075BE"/>
		<stop  offset="0.9944" style="stop-color:#005B97"/>
	</linearGradient>
	<path class="st4" d="M490.26,400.5c-3.94-7.58-7.89-15.15-11.83-22.74c-6.73-12.98-13.63-25.89-20.03-39.03
		c-1.19-2.44-1.4-6.28-0.35-8.75c18.82-44.47,37.9-88.82,56.9-133.21c1.23-2.88,2.34-5.06,6.32-5.04
		c27.89,0.18,55.78,0.09,83.67,0.11c1.16,0,2.31,0.27,3.85,0.46c0,99.64,0,199.05,0,298.79c-23.62,0-47,0-71.51,0
		c2.16-68.97-3.65-137.94,4.13-207.03c-16.37,38.81-32.75,77.62-49.12,116.43C491.61,400.5,490.93,400.5,490.26,400.5z"/>
	
		<linearGradient id="SVGID_00000059288805468686577850000014603339372424324774_" gradientUnits="userSpaceOnUse" x1="282.2538" y1="308.2256" x2="476.5843" y2="308.2256">
		<stop  offset="0.487" style="stop-color:#CCE0F4"/>
		<stop  offset="0.5108" style="stop-color:#C3DCF2"/>
		<stop  offset="0.5504" style="stop-color:#A9D2EE"/>
		<stop  offset="0.6009" style="stop-color:#80C2E7"/>
		<stop  offset="0.6597" style="stop-color:#47ACDE"/>
		<stop  offset="0.6978" style="stop-color:#1E9CD7"/>
		<stop  offset="0.8652" style="stop-color:#0075BE"/>
		<stop  offset="0.9944" style="stop-color:#005B97"/>
	</linearGradient>
	<path style="fill:url(#SVGID_00000059288805468686577850000014603339372424324774_);" d="M282.25,192.26
		c2.41-0.18,3.96-0.41,5.51-0.41c21.07-0.02,42.14,0.07,63.21-0.1c3.73-0.03,5.68,1.2,7.39,4.5
		c38.75,74.49,77.61,148.93,116.44,223.38c0.63,1.21,1.03,2.53,1.78,4.4c-1.88,0.25-3.33,0.61-4.78,0.61
		c-21.27,0.02-42.54-0.09-63.8,0.07c-3.67,0.03-5.71-1.01-7.45-4.36c-38.74-74.49-77.6-148.93-116.41-223.38
		C283.5,195.75,283.11,194.42,282.25,192.26z"/>
	
		<linearGradient id="SVGID_00000148627571597144457690000010795333704278646184_" gradientUnits="userSpaceOnUse" x1="282.0327" y1="367.6056" x2="348.7878" y2="367.6056">
		<stop  offset="0.487" style="stop-color:#CCE0F4"/>
		<stop  offset="0.5108" style="stop-color:#C3DCF2"/>
		<stop  offset="0.5504" style="stop-color:#A9D2EE"/>
		<stop  offset="0.6009" style="stop-color:#80C2E7"/>
		<stop  offset="0.6597" style="stop-color:#47ACDE"/>
		<stop  offset="0.6978" style="stop-color:#1E9CD7"/>
		<stop  offset="0.8652" style="stop-color:#0075BE"/>
		<stop  offset="0.9944" style="stop-color:#005B97"/>
	</linearGradient>
	<path style="fill:url(#SVGID_00000148627571597144457690000010795333704278646184_);" d="M283.32,244.11
		c0.91,1.37,1.95,2.67,2.71,4.13c20.38,39.28,40.75,78.57,61.03,117.91c0.97,1.87,1.63,4.14,1.64,6.23
		c0.11,38.5,0.09,76.99,0.09,115.49c0,0.96-0.17,1.93-0.3,3.23c-22.2,0-44.17,0-66.46,0c0-82.19,0-164.36,0-246.52
		C282.46,244.42,282.89,244.27,283.32,244.11z"/>
</g>
<g>
	
		<linearGradient id="SVGID_00000054946579298086941410000014142889875405292707_" gradientUnits="userSpaceOnUse" x1="892.37" y1="386.6342" x2="964.1" y2="386.6342">
		<stop  offset="0.487" style="stop-color:#CCE0F4"/>
		<stop  offset="0.5108" style="stop-color:#C3DCF2"/>
		<stop  offset="0.5504" style="stop-color:#A9D2EE"/>
		<stop  offset="0.6009" style="stop-color:#80C2E7"/>
		<stop  offset="0.6597" style="stop-color:#47ACDE"/>
		<stop  offset="0.6978" style="stop-color:#1E9CD7"/>
		<stop  offset="0.8652" style="stop-color:#0075BE"/>
		<stop  offset="0.9944" style="stop-color:#005B97"/>
	</linearGradient>
	<path style="fill:url(#SVGID_00000054946579298086941410000014142889875405292707_);" d="M964.1,485.23V284.28h-71.73v204.7h70.31
		C962.66,487.6,963.13,486.2,964.1,485.23z"/>
	
		<linearGradient id="SVGID_00000107557562855571102640000008387199091555112069_" gradientUnits="userSpaceOnUse" x1="892.1115" y1="218.0724" x2="1091.5779" y2="218.0724">
		<stop  offset="0.487" style="stop-color:#CCE0F4"/>
		<stop  offset="0.5108" style="stop-color:#C3DCF2"/>
		<stop  offset="0.5504" style="stop-color:#A9D2EE"/>
		<stop  offset="0.6009" style="stop-color:#80C2E7"/>
		<stop  offset="0.6597" style="stop-color:#47ACDE"/>
		<stop  offset="0.6978" style="stop-color:#1E9CD7"/>
		<stop  offset="0.8652" style="stop-color:#0075BE"/>
		<stop  offset="0.9944" style="stop-color:#005B97"/>
	</linearGradient>
	<path style="fill:url(#SVGID_00000107557562855571102640000008387199091555112069_);" d="M892.11,245.8c0-18.54,0-36.75,0-55.46
		c66.45,0,132.73,0,199.47,0c0,18.33,0,36.68,0,55.46C1025.42,245.8,959.12,245.8,892.11,245.8z"/>
	
		<linearGradient id="SVGID_00000080906870418955113020000017492302805726998456_" gradientUnits="userSpaceOnUse" x1="987.6433" y1="337.9745" x2="1076.2316" y2="337.9745">
		<stop  offset="0.487" style="stop-color:#CCE0F4"/>
		<stop  offset="0.5108" style="stop-color:#C3DCF2"/>
		<stop  offset="0.5504" style="stop-color:#A9D2EE"/>
		<stop  offset="0.6009" style="stop-color:#80C2E7"/>
		<stop  offset="0.6597" style="stop-color:#47ACDE"/>
		<stop  offset="0.6978" style="stop-color:#1E9CD7"/>
		<stop  offset="0.8652" style="stop-color:#0075BE"/>
		<stop  offset="0.9944" style="stop-color:#005B97"/>
	</linearGradient>
	<path style="fill:url(#SVGID_00000080906870418955113020000017492302805726998456_);" d="M1076.23,311.51c0,17.78,0,35.15,0,52.94
		c-29.49,0-58.84,0-88.59,0c0-17.45,0-34.96,0-52.94C1016.95,311.51,1046.27,311.51,1076.23,311.51z"/>
</g>
<linearGradient id="SVGID_00000057844945196494730570000001483459170244943491_" gradientUnits="userSpaceOnUse" x1="645.0001" y1="341" x2="826.0001" y2="341">
	<stop  offset="0.487" style="stop-color:#CCE0F4"/>
	<stop  offset="0.5108" style="stop-color:#C3DCF2"/>
	<stop  offset="0.5504" style="stop-color:#A9D2EE"/>
	<stop  offset="0.6009" style="stop-color:#80C2E7"/>
	<stop  offset="0.6597" style="stop-color:#47ACDE"/>
	<stop  offset="0.6978" style="stop-color:#1E9CD7"/>
	<stop  offset="0.8652" style="stop-color:#0075BE"/>
	<stop  offset="0.9944" style="stop-color:#005B97"/>
</linearGradient>
<path style="fill:url(#SVGID_00000057844945196494730570000001483459170244943491_);" d="M826,490c-99.96,0-181-66.71-181-149
	s81.04-149,181-149"/>
<g>
	<path class="st11" d="M773.86,390.27c-6.17,0-12.19,0-18.34,0c0-28.06,0-56.09,0-84.27c6.06,0,12.14,0,18.34,0
		C773.86,334.06,773.86,362.08,773.86,390.27z"/>
	<path class="st11" d="M726.27,358.33c0-6.78,0-13.38,0-20.14c25.55,0,51.07,0,76.73,0c0,6.65,0,13.34,0,20.14
		C777.45,358.33,751.93,358.33,726.27,358.33z"/>
</g>
</svg>
